<?xml version="1.0" standalone="no"?><svg xmlns="http://www.w3.org/2000/svg" viewBox="0 0 1440 50">
  <path fill="#273036" fill-opacity="1" d="M0,96L26.7,117.3C53.3,139,107,181,160,165.3C213.3,149,267,75,320,58.7C373.3,43,427,85,480,112C533.3,139,587,149,640,149.3C693.3,149,747,139,800,149.3C853.3,160,907,192,960,176C1013.3,160,1067,96,1120,101.3C1173.3,107,1227,181,1280,213.3C1333.3,245,1387,235,1413,229.3L1440,224L1440,320L1413.3,320C1386.7,320,1333,320,1280,320C1226.7,320,1173,320,1120,320C1066.7,320,1013,320,960,320C906.7,320,853,320,800,320C746.7,320,693,320,640,320C586.7,320,533,320,480,320C426.7,320,373,320,320,320C266.7,320,213,320,160,320C106.7,320,53,320,27,320L0,320Z"></path>
</svg>