<svg width="513" height="513" viewBox="0 0 513 513" fill="none" xmlns="http://www.w3.org/2000/svg">
<g clip-path="url(#clip0)">
<path d="M256.003 512.006C397.39 512.006 512.006 397.39 512.006 256.003C512.006 114.616 397.39 0 256.003 0C114.616 0 0 114.616 0 256.003C0 397.39 114.616 512.006 256.003 512.006Z" fill="#E6EFF4"/>
<path d="M395.421 116.572C359.739 80.892 310.447 58.824 256 58.824C147.102 58.824 58.824 147.103 58.824 256C58.824 310.447 80.892 359.739 116.572 395.421L232.024 510.873C239.919 511.608 247.912 512 256 512C397.385 512 512 397.385 512 256C512 247.914 511.607 239.919 510.874 232.024L395.421 116.572Z" fill="#B6D1DD"/>
<path d="M256.003 453.179C364.9 453.179 453.179 364.9 453.179 256.003C453.179 147.106 364.9 58.827 256.003 58.827C147.106 58.827 58.827 147.106 58.827 256.003C58.827 364.9 147.106 453.179 256.003 453.179Z" fill="#41A0D7"/>
<path d="M148.363 129.438C148.366 125.516 150.333 121.857 153.602 119.69C156.871 117.523 161.005 117.141 164.62 118.663L352.345 197.705C357.17 199.737 360.905 203.722 362.62 208.669C364.334 213.615 363.868 219.057 361.335 223.64L318.865 300.49H358.372L288.091 390.317L301.398 327.936L276.446 326.689L283.932 288.429L250.667 300.126C247.628 301.195 244.284 300.999 241.39 299.584C233.359 295.655 216.725 286.412 205.016 272.384C203.39 270.436 202.939 267.763 203.835 265.39C204.731 263.016 206.837 261.315 209.344 260.927L270.624 251.418H197.929C194.572 251.418 191.362 250.013 189.086 247.546C183.311 241.288 172.252 227.953 165.645 211.334C164.413 208.235 164.979 204.71 167.12 202.153C169.261 199.597 172.63 198.427 175.897 199.093L269.377 218.148L171.401 185.75C166.951 184.278 163.218 181.182 160.952 177.079C156.023 168.154 148.344 150.816 148.363 129.438Z" fill="white"/>
</g>
<defs>
<clipPath id="clip0">
<rect width="512.007" height="512.007" fill="white"/>
</clipPath>
</defs>
</svg>
